<svg class="marks" width="255" height="239" viewBox="0 0 255 239" version="1.1" xmlns="http://www.w3.org/2000/svg" xmlns:xlink="http://www.w3.org/1999/xlink"><g transform="translate(50,5)"><g class="mark-group role-frame root"><g transform="translate(0,0)"><path class="background" d="M0.5,0.5h200v200h-200Z" style="fill: transparent; stroke: #ddd;"></path><g><g class="mark-group role-axis"><g transform="translate(0.5,0.5)"><path class="background" d="M0,0h0v0h0Z" style="pointer-events: none; fill: none;"></path><g><g class="mark-rule role-axis-grid" style="pointer-events: none;"><line transform="translate(0,200)" x2="200" y2="0" style="fill: none; stroke: #ddd; stroke-width: 1; stroke-dasharray: ; opacity: 1;"></line><line transform="translate(0,164)" x2="200" y2="0" style="fill: none; stroke: #ddd; stroke-width: 1; stroke-dasharray: ; opacity: 1;"></line><line transform="translate(0,127)" x2="200" y2="0" style="fill: none; stroke: #ddd; stroke-width: 1; stroke-dasharray: ; opacity: 1;"></line><line transform="translate(0,91)" x2="200" y2="0" style="fill: none; stroke: #ddd; stroke-width: 1; stroke-dasharray: ; opacity: 1;"></line><line transform="translate(0,55)" x2="200" y2="0" style="fill: none; stroke: #ddd; stroke-width: 1; stroke-dasharray: ; opacity: 1;"></line><line transform="translate(0,18)" x2="200" y2="0" style="fill: none; stroke: #ddd; stroke-width: 1; stroke-dasharray: ; opacity: 1;"></line></g></g></g></g><g class="mark-rect role-mark marks"><path d="M127,25h10v175h-10Z" style="fill: #4c78a8;"></path><path d="M138,16h9v184h-9Z" style="fill: #4c78a8;"></path><path d="M0,123h1v77h-1Z" style="fill: #4c78a8;"></path><path d="M64,183h10v17h-10Z" style="fill: #4c78a8;"></path><path d="M159,88h9v112h-9Z" style="fill: #4c78a8;"></path><path d="M75,180h9v20h-9Z" style="fill: #4c78a8;"></path><path d="M117,63h9v137h-9Z" style="fill: #4c78a8;"></path><path d="M148,43h10v157h-10Z" style="fill: #4c78a8;"></path><path d="M169,142h10v58h-10Z" style="fill: #4c78a8;"></path><path d="M54,191h9v9h-9Z" style="fill: #4c78a8;"></path><path d="M180,184h9v16h-9Z" style="fill: #4c78a8;"></path><path d="M106,107h10v93h-10Z" style="fill: #4c78a8;"></path><path d="M96,132h9v68h-9Z" style="fill: #4c78a8;"></path><path d="M85,169h10v31h-10Z" style="fill: #4c78a8;"></path><path d="M190,199h10v1h-10Z" style="fill: #4c78a8;"></path><path d="M33,199h9v1h-9Z" style="fill: #4c78a8;"></path><path d="M43,194h10v6h-10Z" style="fill: #4c78a8;"></path><path d="M22,200h10v0h-10Z" style="fill: #4c78a8;"></path></g><g class="mark-group role-axis"><g transform="translate(0.5,200.5)"><path class="background" d="M0,0h0v0h0Z" style="pointer-events: none; fill: none;"></path><g><g class="mark-rule role-axis-tick" style="pointer-events: none;"><line transform="translate(0,0)" x2="0" y2="5" style="fill: none; stroke: #888; stroke-width: 1; opacity: 1;"></line><line transform="translate(42,0)" x2="0" y2="5" style="fill: none; stroke: #888; stroke-width: 1; opacity: 1;"></line><line transform="translate(84,0)" x2="0" y2="5" style="fill: none; stroke: #888; stroke-width: 1; opacity: 1;"></line><line transform="translate(126,0)" x2="0" y2="5" style="fill: none; stroke: #888; stroke-width: 1; opacity: 1;"></line><line transform="translate(168,0)" x2="0" y2="5" style="fill: none; stroke: #888; stroke-width: 1; opacity: 1;"></line></g><g class="mark-text role-axis-label" style="pointer-events: none;"><text text-anchor="end" transform="translate(0,7) rotate(270) translate(0,3)" style="font: 10px sans-serif; fill: #000; opacity: 1;">0</text><text text-anchor="end" transform="translate(42,7) rotate(270) translate(0,3)" style="font: 10px sans-serif; fill: #000; opacity: 1;">2</text><text text-anchor="end" transform="translate(84,7) rotate(270) translate(0,3)" style="font: 10px sans-serif; fill: #000; opacity: 1;">4</text><text text-anchor="end" transform="translate(126,7) rotate(270) translate(0,3)" style="font: 10px sans-serif; fill: #000; opacity: 1;">6</text><text text-anchor="end" transform="translate(168,7) rotate(270) translate(0,3)" style="font: 10px sans-serif; fill: #000; opacity: 1;">8</text></g><g class="mark-rule role-axis-domain" style="pointer-events: none;"><line transform="translate(0,0)" x2="200" y2="0" style="fill: none; stroke: #888; stroke-width: 1; opacity: 1;"></line></g><g class="mark-text role-axis-title" style="pointer-events: none;"><text text-anchor="middle" transform="translate(100,25.5615234375)" style="font: bold 11px sans-serif; fill: #000; opacity: 1;">BIN(IMDB_Rating)</text></g></g></g></g><g class="mark-group role-axis"><g transform="translate(0.5,0.5)"><path class="background" d="M0,0h0v0h0Z" style="pointer-events: none; fill: none;"></path><g><g class="mark-rule role-axis-tick" style="pointer-events: none;"><line transform="translate(0,200)" x2="-5" y2="0" style="fill: none; stroke: #888; stroke-width: 1; opacity: 1;"></line><line transform="translate(0,164)" x2="-5" y2="0" style="fill: none; stroke: #888; stroke-width: 1; opacity: 1;"></line><line transform="translate(0,127)" x2="-5" y2="0" style="fill: none; stroke: #888; stroke-width: 1; opacity: 1;"></line><line transform="translate(0,91)" x2="-5" y2="0" style="fill: none; stroke: #888; stroke-width: 1; opacity: 1;"></line><line transform="translate(0,55)" x2="-5" y2="0" style="fill: none; stroke: #888; stroke-width: 1; opacity: 1;"></line><line transform="translate(0,18)" x2="-5" y2="0" style="fill: none; stroke: #888; stroke-width: 1; opacity: 1;"></line></g><g class="mark-text role-axis-label" style="pointer-events: none;"><text text-anchor="end" transform="translate(-7,203)" style="font: 10px sans-serif; fill: #000; opacity: 1;">0</text><text text-anchor="end" transform="translate(-7,167)" style="font: 10px sans-serif; fill: #000; opacity: 1;">100</text><text text-anchor="end" transform="translate(-7,130)" style="font: 10px sans-serif; fill: #000; opacity: 1;">200</text><text text-anchor="end" transform="translate(-7,94)" style="font: 10px sans-serif; fill: #000; opacity: 1;">300</text><text text-anchor="end" transform="translate(-7,58)" style="font: 10px sans-serif; fill: #000; opacity: 1;">400</text><text text-anchor="end" transform="translate(-7,21)" style="font: 10px sans-serif; fill: #000; opacity: 1;">500</text></g><g class="mark-rule role-axis-domain" style="pointer-events: none;"><line transform="translate(0,200)" x2="0" y2="-200" style="fill: none; stroke: #888; stroke-width: 1; opacity: 1;"></line></g><g class="mark-text role-axis-title" style="pointer-events: none;"><text text-anchor="middle" transform="translate(-32,100) rotate(-90) translate(0,-2)" style="font: bold 11px sans-serif; fill: #000; opacity: 1;">Number of Records</text></g></g></g></g></g></g></g></g></svg>