<svg class="marks" width="476" height="245" viewBox="0 0 476 245" version="1.1" xmlns="http://www.w3.org/2000/svg" xmlns:xlink="http://www.w3.org/1999/xlink"><defs><linearGradient id="gradient_0" x1="0" x2="1" y1="0" y2="0"><stop offset="0" stop-color="rgb(247, 252, 240)"></stop><stop offset="0.059602649006622516" stop-color="rgb(236, 248, 230)"></stop><stop offset="0.12582781456953643" stop-color="rgb(224, 243, 219)"></stop><stop offset="0.19205298013245034" stop-color="rgb(213, 239, 207)"></stop><stop offset="0.2582781456953642" stop-color="rgb(199, 233, 197)"></stop><stop offset="0.32450331125827814" stop-color="rgb(182, 226, 189)"></stop><stop offset="0.39072847682119205" stop-color="rgb(161, 219, 186)"></stop><stop offset="0.45695364238410596" stop-color="rgb(138, 209, 191)"></stop><stop offset="0.5231788079470199" stop-color="rgb(115, 199, 199)"></stop><stop offset="0.5894039735099338" stop-color="rgb(91, 185, 205)"></stop><stop offset="0.6556291390728477" stop-color="rgb(70, 168, 203)"></stop><stop offset="0.7218543046357616" stop-color="rgb(51, 149, 195)"></stop><stop offset="0.7880794701986755" stop-color="rgb(33, 129, 185)"></stop><stop offset="0.8543046357615894" stop-color="rgb(17, 110, 173)"></stop><stop offset="0.9205298013245033" stop-color="rgb(9, 89, 155)"></stop><stop offset="0.9867549668874173" stop-color="rgb(8, 68, 134)"></stop><stop offset="1" stop-color="rgb(8, 64, 129)"></stop></linearGradient></defs><g transform="translate(50,11)"><g class="mark-group role-frame root"><g transform="translate(0,0)"><path class="background" d="M0.5,0.5h300v200h-300Z" style="fill: none; stroke: transparent;"></path><g><g class="mark-rect role-mark marks"><path d="M196,200h6v0h-6Z" style="fill: rgb(191, 230, 192);"></path><path d="M222,200h6v0h-6Z" style="fill: rgb(182, 226, 189);"></path><path d="M0,170h0v10h0Z" style="fill: rgb(242, 250, 236);"></path><path d="M111,70h6v10h-6Z" style="fill: rgb(247, 252, 240);"></path><path d="M0,200h0v0h0Z" style="fill: rgb(8, 64, 129);"></path><path d="M248,200h6v0h-6Z" style="fill: rgb(237, 248, 231);"></path><path d="M117,200h7v0h-7Z" style="fill: rgb(234, 247, 228);"></path><path d="M183,140h6v10h-6Z" style="fill: rgb(235, 247, 229);"></path><path d="M228,20h7v10h-7Z" style="fill: rgb(238, 249, 232);"></path><path d="M228,30h7v10h-7Z" style="fill: rgb(224, 243, 219);"></path><path d="M241,30h7v10h-7Z" style="fill: rgb(215, 240, 210);"></path><path d="M274,0h6v10h-6Z" style="fill: rgb(224, 243, 219);"></path><path d="M222,20h6v10h-6Z" style="fill: rgb(234, 247, 228);"></path><path d="M228,200h7v0h-7Z" style="fill: rgb(186, 228, 190);"></path><path d="M78,10h7v10h-7Z" style="fill: rgb(247, 252, 240);"></path><path d="M287,200h6v0h-6Z" style="fill: rgb(241, 250, 234);"></path><path d="M261,200h6v0h-6Z" style="fill: rgb(225, 244, 220);"></path><path d="M228,80h7v10h-7Z" style="fill: rgb(236, 248, 230);"></path><path d="M176,130h7v10h-7Z" style="fill: rgb(227, 244, 221);"></path><path d="M202,200h7v0h-7Z" style="fill: rgb(201, 234, 198);"></path><path d="M0,10h0v10h0Z" style="fill: rgb(241, 250, 234);"></path><path d="M228,40h7v10h-7Z" style="fill: rgb(225, 244, 220);"></path><path d="M183,200h6v0h-6Z" style="fill: rgb(204, 235, 200);"></path><path d="M104,160h7v10h-7Z" style="fill: rgb(243, 251, 237);"></path><path d="M248,0h6v10h-6Z" style="fill: rgb(242, 250, 236);"></path><path d="M209,170h6v10h-6Z" style="fill: rgb(243, 251, 237);"></path><path d="M228,50h7v10h-7Z" style="fill: rgb(235, 247, 229);"></path><path d="M228,0h7v10h-7Z" style="fill: rgb(241, 250, 234);"></path><path d="M241,0h7v10h-7Z" style="fill: rgb(229, 245, 223);"></path><path d="M222,80h6v10h-6Z" style="fill: rgb(240, 249, 233);"></path><path d="M176,200h7v0h-7Z" style="fill: rgb(191, 230, 192);"></path><path d="M157,200h6v0h-6Z" style="fill: rgb(233, 246, 227);"></path><path d="M241,20h7v10h-7Z" style="fill: rgb(213, 239, 207);"></path><path d="M143,170h7v10h-7Z" style="fill: rgb(236, 248, 230);"></path><path d="M209,100h6v10h-6Z" style="fill: rgb(224, 243, 219);"></path><path d="M0,130h0v10h0Z" style="fill: rgb(242, 250, 236);"></path><path d="M215,150h7v10h-7Z" style="fill: rgb(247, 252, 240);"></path><path d="M235,200h6v0h-6Z" style="fill: rgb(188, 229, 191);"></path><path d="M189,90h7v10h-7Z" style="fill: rgb(242, 250, 236);"></path><path d="M104,50h7v10h-7Z" style="fill: rgb(247, 252, 240);"></path><path d="M241,200h7v0h-7Z" style="fill: rgb(150, 214, 188);"></path><path d="M222,10h6v10h-6Z" style="fill: rgb(242, 250, 236);"></path><path d="M261,0h6v10h-6Z" style="fill: rgb(204, 235, 200);"></path><path d="M183,70h6v10h-6Z" style="fill: rgb(242, 250, 236);"></path><path d="M274,10h6v10h-6Z" style="fill: rgb(240, 249, 233);"></path><path d="M202,20h7v10h-7Z" style="fill: rgb(241, 250, 234);"></path><path d="M209,200h6v0h-6Z" style="fill: rgb(138, 209, 191);"></path><path d="M163,200h7v0h-7Z" style="fill: rgb(227, 244, 221);"></path><path d="M143,160h7v10h-7Z" style="fill: rgb(234, 247, 228);"></path><path d="M176,50h7v10h-7Z" style="fill: rgb(246, 252, 239);"></path><path d="M183,50h6v10h-6Z" style="fill: rgb(247, 252, 240);"></path><path d="M261,10h6v10h-6Z" style="fill: rgb(222, 242, 216);"></path><path d="M235,0h6v10h-6Z" style="fill: rgb(240, 249, 233);"></path><path d="M163,150h7v10h-7Z" style="fill: rgb(236, 248, 230);"></path><path d="M222,60h6v10h-6Z" style="fill: rgb(235, 247, 229);"></path><path d="M241,70h7v10h-7Z" style="fill: rgb(242, 250, 236);"></path><path d="M209,120h6v10h-6Z" style="fill: rgb(235, 247, 229);"></path><path d="M209,30h6v10h-6Z" style="fill: rgb(234, 247, 228);"></path><path d="M183,90h6v10h-6Z" style="fill: rgb(235, 247, 229);"></path><path d="M183,30h6v10h-6Z" style="fill: rgb(247, 252, 240);"></path><path d="M111,10h6v10h-6Z" style="fill: rgb(247, 252, 240);"></path><path d="M104,150h7v10h-7Z" style="fill: rgb(246, 252, 239);"></path><path d="M163,120h7v10h-7Z" style="fill: rgb(238, 249, 232);"></path><path d="M150,110h7v10h-7Z" style="fill: rgb(241, 250, 234);"></path><path d="M235,30h6v10h-6Z" style="fill: rgb(224, 243, 219);"></path><path d="M196,100h6v10h-6Z" style="fill: rgb(235, 247, 229);"></path><path d="M163,170h7v10h-7Z" style="fill: rgb(236, 248, 230);"></path><path d="M176,110h7v10h-7Z" style="fill: rgb(234, 247, 228);"></path><path d="M254,0h7v10h-7Z" style="fill: rgb(221, 242, 215);"></path><path d="M137,200h6v0h-6Z" style="fill: rgb(238, 249, 232);"></path><path d="M222,70h6v10h-6Z" style="fill: rgb(233, 246, 227);"></path><path d="M202,110h7v10h-7Z" style="fill: rgb(234, 247, 228);"></path><path d="M267,10h7v10h-7Z" style="fill: rgb(241, 250, 234);"></path><path d="M254,30h7v10h-7Z" style="fill: rgb(235, 247, 229);"></path><path d="M215,120h7v10h-7Z" style="fill: rgb(242, 250, 236);"></path><path d="M183,80h6v10h-6Z" style="fill: rgb(243, 251, 237);"></path><path d="M235,10h6v10h-6Z" style="fill: rgb(236, 248, 230);"></path><path d="M241,50h7v10h-7Z" style="fill: rgb(235, 247, 229);"></path><path d="M189,120h7v10h-7Z" style="fill: rgb(237, 248, 231);"></path><path d="M235,20h6v10h-6Z" style="fill: rgb(223, 243, 218);"></path><path d="M215,60h7v10h-7Z" style="fill: rgb(237, 248, 231);"></path><path d="M130,80h7v10h-7Z" style="fill: rgb(247, 252, 240);"></path><path d="M235,40h6v10h-6Z" style="fill: rgb(231, 246, 225);"></path><path d="M209,10h6v10h-6Z" style="fill: rgb(246, 252, 239);"></path><path d="M202,70h7v10h-7Z" style="fill: rgb(235, 247, 229);"></path><path d="M274,40h6v10h-6Z" style="fill: rgb(243, 251, 237);"></path><path d="M143,200h7v0h-7Z" style="fill: rgb(221, 242, 215);"></path><path d="M254,20h7v10h-7Z" style="fill: rgb(227, 244, 221);"></path><path d="M215,30h7v10h-7Z" style="fill: rgb(238, 249, 232);"></path><path d="M235,60h6v10h-6Z" style="fill: rgb(231, 246, 225);"></path><path d="M222,40h6v10h-6Z" style="fill: rgb(224, 243, 219);"></path><path d="M170,130h6v10h-6Z" style="fill: rgb(236, 248, 230);"></path><path d="M183,60h6v10h-6Z" style="fill: rgb(242, 250, 236);"></path><path d="M228,60h7v10h-7Z" style="fill: rgb(231, 246, 225);"></path><path d="M241,10h7v10h-7Z" style="fill: rgb(213, 239, 207);"></path><path d="M261,130h6v10h-6Z" style="fill: rgb(247, 252, 240);"></path><path d="M202,50h7v10h-7Z" style="fill: rgb(236, 248, 230);"></path><path d="M228,70h7v10h-7Z" style="fill: rgb(229, 245, 223);"></path><path d="M170,170h6v10h-6Z" style="fill: rgb(237, 248, 231);"></path><path d="M261,20h6v10h-6Z" style="fill: rgb(233, 246, 227);"></path><path d="M209,40h6v10h-6Z" style="fill: rgb(230, 245, 224);"></path><path d="M222,110h6v10h-6Z" style="fill: rgb(235, 247, 229);"></path><path d="M202,30h7v10h-7Z" style="fill: rgb(240, 249, 233);"></path><path d="M111,200h6v0h-6Z" style="fill: rgb(230, 245, 224);"></path><path d="M248,20h6v10h-6Z" style="fill: rgb(240, 249, 233);"></path><path d="M189,60h7v10h-7Z" style="fill: rgb(245, 251, 238);"></path><path d="M189,200h7v0h-7Z" style="fill: rgb(222, 242, 216);"></path><path d="M143,50h7v10h-7Z" style="fill: rgb(247, 252, 240);"></path><path d="M163,10h7v10h-7Z" style="fill: rgb(247, 252, 240);"></path><path d="M143,150h7v10h-7Z" style="fill: rgb(237, 248, 231);"></path><path d="M176,140h7v10h-7Z" style="fill: rgb(219, 241, 213);"></path><path d="M157,170h6v10h-6Z" style="fill: rgb(238, 249, 232);"></path><path d="M209,50h6v10h-6Z" style="fill: rgb(230, 245, 224);"></path><path d="M183,110h6v10h-6Z" style="fill: rgb(228, 244, 222);"></path><path d="M209,20h6v10h-6Z" style="fill: rgb(240, 249, 233);"></path><path d="M254,200h7v0h-7Z" style="fill: rgb(221, 242, 215);"></path><path d="M209,60h6v10h-6Z" style="fill: rgb(231, 246, 225);"></path><path d="M287,0h6v10h-6Z" style="fill: rgb(242, 250, 236);"></path><path d="M261,30h6v10h-6Z" style="fill: rgb(235, 247, 229);"></path><path d="M196,80h6v10h-6Z" style="fill: rgb(234, 247, 228);"></path><path d="M170,100h6v10h-6Z" style="fill: rgb(246, 252, 239);"></path><path d="M189,10h7v10h-7Z" style="fill: rgb(247, 252, 240);"></path><path d="M170,200h6v0h-6Z" style="fill: rgb(222, 242, 216);"></path><path d="M176,150h7v10h-7Z" style="fill: rgb(235, 247, 229);"></path><path d="M209,80h6v10h-6Z" style="fill: rgb(223, 243, 218);"></path><path d="M196,90h6v10h-6Z" style="fill: rgb(229, 245, 223);"></path><path d="M176,10h7v10h-7Z" style="fill: rgb(246, 252, 239);"></path><path d="M202,90h7v10h-7Z" style="fill: rgb(223, 243, 218);"></path><path d="M150,200h7v0h-7Z" style="fill: rgb(228, 244, 222);"></path><path d="M261,40h6v10h-6Z" style="fill: rgb(242, 250, 236);"></path><path d="M248,10h6v10h-6Z" style="fill: rgb(237, 248, 231);"></path><path d="M209,70h6v10h-6Z" style="fill: rgb(214, 239, 208);"></path><path d="M150,180h7v10h-7Z" style="fill: rgb(233, 246, 227);"></path><path d="M143,40h7v10h-7Z" style="fill: rgb(247, 252, 240);"></path><path d="M196,30h6v10h-6Z" style="fill: rgb(247, 252, 240);"></path><path d="M222,30h6v10h-6Z" style="fill: rgb(222, 242, 216);"></path><path d="M241,40h7v10h-7Z" style="fill: rgb(229, 245, 223);"></path><path d="M176,90h7v10h-7Z" style="fill: rgb(240, 249, 233);"></path><path d="M170,80h6v10h-6Z" style="fill: rgb(246, 252, 239);"></path><path d="M196,40h6v10h-6Z" style="fill: rgb(242, 250, 236);"></path><path d="M189,130h7v10h-7Z" style="fill: rgb(240, 249, 233);"></path><path d="M196,70h6v10h-6Z" style="fill: rgb(229, 245, 223);"></path><path d="M222,0h6v10h-6Z" style="fill: rgb(246, 252, 239);"></path><path d="M215,200h7v0h-7Z" style="fill: rgb(222, 242, 216);"></path><path d="M176,70h7v10h-7Z" style="fill: rgb(243, 251, 237);"></path><path d="M176,170h7v10h-7Z" style="fill: rgb(223, 243, 218);"></path><path d="M124,200h6v0h-6Z" style="fill: rgb(245, 251, 238);"></path><path d="M130,200h7v0h-7Z" style="fill: rgb(235, 247, 229);"></path><path d="M209,0h6v10h-6Z" style="fill: rgb(246, 252, 239);"></path><path d="M183,180h6v10h-6Z" style="fill: rgb(241, 250, 234);"></path><path d="M254,10h7v10h-7Z" style="fill: rgb(228, 244, 222);"></path><path d="M209,90h6v10h-6Z" style="fill: rgb(227, 244, 221);"></path><path d="M0,70h0v10h0Z" style="fill: rgb(246, 252, 239);"></path><path d="M104,60h7v10h-7Z" style="fill: rgb(246, 252, 239);"></path><path d="M274,50h6v10h-6Z" style="fill: rgb(247, 252, 240);"></path><path d="M176,120h7v10h-7Z" style="fill: rgb(230, 245, 224);"></path><path d="M176,100h7v10h-7Z" style="fill: rgb(236, 248, 230);"></path><path d="M176,40h7v10h-7Z" style="fill: rgb(246, 252, 239);"></path><path d="M215,20h7v10h-7Z" style="fill: rgb(245, 251, 238);"></path><path d="M222,50h6v10h-6Z" style="fill: rgb(224, 243, 219);"></path><path d="M98,200h6v0h-6Z" style="fill: rgb(243, 251, 237);"></path><path d="M293,200h7v0h-7Z" style="fill: rgb(247, 252, 240);"></path><path d="M293,0h7v10h-7Z" style="fill: rgb(247, 252, 240);"></path><path d="M222,90h6v10h-6Z" style="fill: rgb(236, 248, 230);"></path><path d="M157,130h6v10h-6Z" style="fill: rgb(246, 252, 239);"></path><path d="M202,120h7v10h-7Z" style="fill: rgb(236, 248, 230);"></path><path d="M170,140h6v10h-6Z" style="fill: rgb(235, 247, 229);"></path><path d="M46,200h6v0h-6Z" style="fill: rgb(247, 252, 240);"></path><path d="M267,0h7v10h-7Z" style="fill: rgb(241, 250, 234);"></path><path d="M157,140h6v10h-6Z" style="fill: rgb(242, 250, 236);"></path><path d="M196,10h6v10h-6Z" style="fill: rgb(245, 251, 238);"></path><path d="M183,150h6v10h-6Z" style="fill: rgb(235, 247, 229);"></path><path d="M228,100h7v10h-7Z" style="fill: rgb(243, 251, 237);"></path><path d="M202,150h7v10h-7Z" style="fill: rgb(237, 248, 231);"></path><path d="M137,140h6v10h-6Z" style="fill: rgb(245, 251, 238);"></path><path d="M196,140h6v10h-6Z" style="fill: rgb(236, 248, 230);"></path><path d="M241,80h7v10h-7Z" style="fill: rgb(245, 251, 238);"></path><path d="M183,100h6v10h-6Z" style="fill: rgb(241, 250, 234);"></path><path d="M111,40h6v10h-6Z" style="fill: rgb(247, 252, 240);"></path><path d="M170,150h6v10h-6Z" style="fill: rgb(233, 246, 227);"></path><path d="M130,160h7v10h-7Z" style="fill: rgb(245, 251, 238);"></path><path d="M72,200h6v0h-6Z" style="fill: rgb(243, 251, 237);"></path><path d="M280,10h7v10h-7Z" style="fill: rgb(247, 252, 240);"></path><path d="M130,150h7v10h-7Z" style="fill: rgb(246, 252, 239);"></path><path d="M163,140h7v10h-7Z" style="fill: rgb(240, 249, 233);"></path><path d="M0,0h0v10h0Z" style="fill: rgb(246, 252, 239);"></path><path d="M170,160h6v10h-6Z" style="fill: rgb(233, 246, 227);"></path><path d="M150,160h7v10h-7Z" style="fill: rgb(234, 247, 228);"></path><path d="M157,160h6v10h-6Z" style="fill: rgb(242, 250, 236);"></path><path d="M124,170h6v10h-6Z" style="fill: rgb(245, 251, 238);"></path><path d="M176,80h7v10h-7Z" style="fill: rgb(242, 250, 236);"></path><path d="M85,200h6v0h-6Z" style="fill: rgb(247, 252, 240);"></path><path d="M176,60h7v10h-7Z" style="fill: rgb(243, 251, 237);"></path><path d="M215,90h7v10h-7Z" style="fill: rgb(240, 249, 233);"></path><path d="M241,100h7v10h-7Z" style="fill: rgb(243, 251, 237);"></path><path d="M241,60h7v10h-7Z" style="fill: rgb(237, 248, 231);"></path><path d="M196,0h6v10h-6Z" style="fill: rgb(247, 252, 240);"></path><path d="M215,50h7v10h-7Z" style="fill: rgb(236, 248, 230);"></path><path d="M215,70h7v10h-7Z" style="fill: rgb(237, 248, 231);"></path><path d="M274,200h6v0h-6Z" style="fill: rgb(237, 248, 231);"></path><path d="M157,100h6v10h-6Z" style="fill: rgb(247, 252, 240);"></path><path d="M215,10h7v10h-7Z" style="fill: rgb(246, 252, 239);"></path><path d="M163,100h7v10h-7Z" style="fill: rgb(245, 251, 238);"></path><path d="M215,0h7v10h-7Z" style="fill: rgb(245, 251, 238);"></path><path d="M235,70h6v10h-6Z" style="fill: rgb(234, 247, 228);"></path><path d="M189,180h7v10h-7Z" style="fill: rgb(245, 251, 238);"></path><path d="M78,200h7v0h-7Z" style="fill: rgb(243, 251, 237);"></path><path d="M163,130h7v10h-7Z" style="fill: rgb(240, 249, 233);"></path><path d="M254,60h7v10h-7Z" style="fill: rgb(241, 250, 234);"></path><path d="M202,80h7v10h-7Z" style="fill: rgb(240, 249, 233);"></path><path d="M228,90h7v10h-7Z" style="fill: rgb(240, 249, 233);"></path><path d="M215,110h7v10h-7Z" style="fill: rgb(240, 249, 233);"></path><path d="M150,170h7v10h-7Z" style="fill: rgb(234, 247, 228);"></path><path d="M189,30h7v10h-7Z" style="fill: rgb(246, 252, 239);"></path><path d="M267,20h7v10h-7Z" style="fill: rgb(247, 252, 240);"></path><path d="M183,120h6v10h-6Z" style="fill: rgb(240, 249, 233);"></path><path d="M170,0h6v10h-6Z" style="fill: rgb(247, 252, 240);"></path><path d="M0,30h0v10h0Z" style="fill: rgb(240, 249, 233);"></path><path d="M202,0h7v10h-7Z" style="fill: rgb(247, 252, 240);"></path><path d="M196,60h6v10h-6Z" style="fill: rgb(240, 249, 233);"></path><path d="M170,90h6v10h-6Z" style="fill: rgb(242, 250, 236);"></path><path d="M196,50h6v10h-6Z" style="fill: rgb(241, 250, 234);"></path><path d="M176,30h7v10h-7Z" style="fill: rgb(245, 251, 238);"></path><path d="M104,180h7v10h-7Z" style="fill: rgb(243, 251, 237);"></path><path d="M228,10h7v10h-7Z" style="fill: rgb(238, 249, 232);"></path><path d="M196,170h6v10h-6Z" style="fill: rgb(243, 251, 237);"></path><path d="M202,100h7v10h-7Z" style="fill: rgb(230, 245, 224);"></path><path d="M150,120h7v10h-7Z" style="fill: rgb(243, 251, 237);"></path><path d="M117,170h7v10h-7Z" style="fill: rgb(243, 251, 237);"></path><path d="M202,140h7v10h-7Z" style="fill: rgb(234, 247, 228);"></path><path d="M85,10h6v10h-6Z" style="fill: rgb(246, 252, 239);"></path><path d="M157,80h6v10h-6Z" style="fill: rgb(247, 252, 240);"></path><path d="M196,150h6v10h-6Z" style="fill: rgb(235, 247, 229);"></path><path d="M254,40h7v10h-7Z" style="fill: rgb(236, 248, 230);"></path><path d="M150,140h7v10h-7Z" style="fill: rgb(240, 249, 233);"></path><path d="M209,110h6v10h-6Z" style="fill: rgb(222, 242, 216);"></path><path d="M287,10h6v10h-6Z" style="fill: rgb(246, 252, 239);"></path><path d="M209,150h6v10h-6Z" style="fill: rgb(241, 250, 234);"></path><path d="M183,20h6v10h-6Z" style="fill: rgb(247, 252, 240);"></path><path d="M215,80h7v10h-7Z" style="fill: rgb(234, 247, 228);"></path><path d="M280,200h7v0h-7Z" style="fill: rgb(243, 251, 237);"></path><path d="M183,130h6v10h-6Z" style="fill: rgb(234, 247, 228);"></path><path d="M157,120h6v10h-6Z" style="fill: rgb(246, 252, 239);"></path><path d="M124,70h6v10h-6Z" style="fill: rgb(247, 252, 240);"></path><path d="M189,80h7v10h-7Z" style="fill: rgb(243, 251, 237);"></path><path d="M183,170h6v10h-6Z" style="fill: rgb(242, 250, 236);"></path><path d="M202,10h7v10h-7Z" style="fill: rgb(245, 251, 238);"></path><path d="M215,100h7v10h-7Z" style="fill: rgb(241, 250, 234);"></path><path d="M85,170h6v10h-6Z" style="fill: rgb(243, 251, 237);"></path><path d="M137,120h6v10h-6Z" style="fill: rgb(246, 252, 239);"></path><path d="M274,20h6v10h-6Z" style="fill: rgb(245, 251, 238);"></path><path d="M117,160h7v10h-7Z" style="fill: rgb(246, 252, 239);"></path><path d="M130,170h7v10h-7Z" style="fill: rgb(245, 251, 238);"></path><path d="M293,20h7v10h-7Z" style="fill: rgb(246, 252, 239);"></path><path d="M280,0h7v10h-7Z" style="fill: rgb(247, 252, 240);"></path><path d="M235,50h6v10h-6Z" style="fill: rgb(233, 246, 227);"></path><path d="M280,20h7v10h-7Z" style="fill: rgb(246, 252, 239);"></path><path d="M176,0h7v10h-7Z" style="fill: rgb(247, 252, 240);"></path><path d="M150,150h7v10h-7Z" style="fill: rgb(243, 251, 237);"></path><path d="M176,160h7v10h-7Z" style="fill: rgb(235, 247, 229);"></path><path d="M157,10h6v10h-6Z" style="fill: rgb(247, 252, 240);"></path><path d="M157,190h6v10h-6Z" style="fill: rgb(247, 252, 240);"></path><path d="M143,140h7v10h-7Z" style="fill: rgb(243, 251, 237);"></path><path d="M104,170h7v10h-7Z" style="fill: rgb(245, 251, 238);"></path><path d="M104,200h7v0h-7Z" style="fill: rgb(243, 251, 237);"></path><path d="M163,110h7v10h-7Z" style="fill: rgb(245, 251, 238);"></path><path d="M170,120h6v10h-6Z" style="fill: rgb(240, 249, 233);"></path><path d="M189,100h7v10h-7Z" style="fill: rgb(238, 249, 232);"></path><path d="M248,40h6v10h-6Z" style="fill: rgb(245, 251, 238);"></path><path d="M137,130h6v10h-6Z" style="fill: rgb(247, 252, 240);"></path><path d="M91,60h7v10h-7Z" style="fill: rgb(246, 252, 239);"></path><path d="M209,130h6v10h-6Z" style="fill: rgb(236, 248, 230);"></path><path d="M202,60h7v10h-7Z" style="fill: rgb(235, 247, 229);"></path><path d="M137,170h6v10h-6Z" style="fill: rgb(237, 248, 231);"></path><path d="M196,120h6v10h-6Z" style="fill: rgb(236, 248, 230);"></path><path d="M196,160h6v10h-6Z" style="fill: rgb(233, 246, 227);"></path><path d="M0,60h0v10h0Z" style="fill: rgb(246, 252, 239);"></path><path d="M143,120h7v10h-7Z" style="fill: rgb(242, 250, 236);"></path><path d="M267,200h7v0h-7Z" style="fill: rgb(245, 251, 238);"></path><path d="M143,130h7v10h-7Z" style="fill: rgb(246, 252, 239);"></path><path d="M202,160h7v10h-7Z" style="fill: rgb(246, 252, 239);"></path><path d="M196,130h6v10h-6Z" style="fill: rgb(236, 248, 230);"></path><path d="M183,160h6v10h-6Z" style="fill: rgb(233, 246, 227);"></path><path d="M254,70h7v10h-7Z" style="fill: rgb(243, 251, 237);"></path><path d="M91,200h7v0h-7Z" style="fill: rgb(246, 252, 239);"></path><path d="M241,140h7v10h-7Z" style="fill: rgb(247, 252, 240);"></path><path d="M163,190h7v10h-7Z" style="fill: rgb(246, 252, 239);"></path><path d="M261,170h6v10h-6Z" style="fill: rgb(247, 252, 240);"></path><path d="M222,150h6v10h-6Z" style="fill: rgb(246, 252, 239);"></path><path d="M143,100h7v10h-7Z" style="fill: rgb(247, 252, 240);"></path><path d="M202,40h7v10h-7Z" style="fill: rgb(246, 252, 239);"></path><path d="M72,190h6v10h-6Z" style="fill: rgb(242, 250, 236);"></path><path d="M274,30h6v10h-6Z" style="fill: rgb(247, 252, 240);"></path><path d="M196,110h6v10h-6Z" style="fill: rgb(234, 247, 228);"></path><path d="M189,70h7v10h-7Z" style="fill: rgb(245, 251, 238);"></path><path d="M143,90h7v10h-7Z" style="fill: rgb(247, 252, 240);"></path><path d="M202,130h7v10h-7Z" style="fill: rgb(243, 251, 237);"></path><path d="M235,100h6v10h-6Z" style="fill: rgb(246, 252, 239);"></path><path d="M150,70h7v10h-7Z" style="fill: rgb(247, 252, 240);"></path><path d="M222,100h6v10h-6Z" style="fill: rgb(236, 248, 230);"></path><path d="M241,120h7v10h-7Z" style="fill: rgb(247, 252, 240);"></path><path d="M241,90h7v10h-7Z" style="fill: rgb(243, 251, 237);"></path><path d="M267,30h7v10h-7Z" style="fill: rgb(245, 251, 238);"></path><path d="M111,160h6v10h-6Z" style="fill: rgb(245, 251, 238);"></path><path d="M170,180h6v10h-6Z" style="fill: rgb(242, 250, 236);"></path><path d="M39,200h7v0h-7Z" style="fill: rgb(247, 252, 240);"></path><path d="M0,20h0v10h0Z" style="fill: rgb(243, 251, 237);"></path><path d="M176,180h7v10h-7Z" style="fill: rgb(243, 251, 237);"></path><path d="M65,200h7v0h-7Z" style="fill: rgb(247, 252, 240);"></path><path d="M124,180h6v10h-6Z" style="fill: rgb(247, 252, 240);"></path><path d="M261,50h6v10h-6Z" style="fill: rgb(246, 252, 239);"></path><path d="M150,190h7v10h-7Z" style="fill: rgb(243, 251, 237);"></path><path d="M235,90h6v10h-6Z" style="fill: rgb(245, 251, 238);"></path><path d="M261,70h6v10h-6Z" style="fill: rgb(247, 252, 240);"></path><path d="M170,40h6v10h-6Z" style="fill: rgb(247, 252, 240);"></path><path d="M143,180h7v10h-7Z" style="fill: rgb(237, 248, 231);"></path><path d="M170,110h6v10h-6Z" style="fill: rgb(241, 250, 234);"></path><path d="M150,130h7v10h-7Z" style="fill: rgb(245, 251, 238);"></path><path d="M248,60h6v10h-6Z" style="fill: rgb(247, 252, 240);"></path><path d="M137,160h6v10h-6Z" style="fill: rgb(246, 252, 239);"></path><path d="M130,180h7v10h-7Z" style="fill: rgb(241, 250, 234);"></path><path d="M254,160h7v10h-7Z" style="fill: rgb(247, 252, 240);"></path><path d="M124,150h6v10h-6Z" style="fill: rgb(246, 252, 239);"></path><path d="M248,30h6v10h-6Z" style="fill: rgb(243, 251, 237);"></path><path d="M137,180h6v10h-6Z" style="fill: rgb(242, 250, 236);"></path><path d="M202,170h7v10h-7Z" style="fill: rgb(246, 252, 239);"></path><path d="M0,40h0v10h0Z" style="fill: rgb(241, 250, 234);"></path><path d="M85,70h6v10h-6Z" style="fill: rgb(247, 252, 240);"></path><path d="M254,130h7v10h-7Z" style="fill: rgb(247, 252, 240);"></path><path d="M111,170h6v10h-6Z" style="fill: rgb(246, 252, 239);"></path><path d="M0,150h0v10h0Z" style="fill: rgb(247, 252, 240);"></path><path d="M0,90h0v10h0Z" style="fill: rgb(245, 251, 238);"></path><path d="M183,0h6v10h-6Z" style="fill: rgb(247, 252, 240);"></path><path d="M117,140h7v10h-7Z" style="fill: rgb(247, 252, 240);"></path><path d="M157,180h6v10h-6Z" style="fill: rgb(247, 252, 240);"></path><path d="M222,130h6v10h-6Z" style="fill: rgb(245, 251, 238);"></path><path d="M65,170h7v10h-7Z" style="fill: rgb(247, 252, 240);"></path><path d="M228,130h7v10h-7Z" style="fill: rgb(247, 252, 240);"></path><path d="M215,40h7v10h-7Z" style="fill: rgb(245, 251, 238);"></path><path d="M130,190h7v10h-7Z" style="fill: rgb(246, 252, 239);"></path><path d="M248,70h6v10h-6Z" style="fill: rgb(243, 251, 237);"></path><path d="M137,190h6v10h-6Z" style="fill: rgb(247, 252, 240);"></path><path d="M52,190h7v10h-7Z" style="fill: rgb(246, 252, 239);"></path><path d="M85,180h6v10h-6Z" style="fill: rgb(245, 251, 238);"></path><path d="M228,140h7v10h-7Z" style="fill: rgb(245, 251, 238);"></path><path d="M0,50h0v10h0Z" style="fill: rgb(246, 252, 239);"></path><path d="M189,160h7v10h-7Z" style="fill: rgb(245, 251, 238);"></path><path d="M124,140h6v10h-6Z" style="fill: rgb(247, 252, 240);"></path><path d="M111,150h6v10h-6Z" style="fill: rgb(245, 251, 238);"></path><path d="M189,140h7v10h-7Z" style="fill: rgb(246, 252, 239);"></path><path d="M170,190h6v10h-6Z" style="fill: rgb(246, 252, 239);"></path><path d="M170,30h6v10h-6Z" style="fill: rgb(247, 252, 240);"></path><path d="M189,110h7v10h-7Z" style="fill: rgb(243, 251, 237);"></path><path d="M98,190h6v10h-6Z" style="fill: rgb(247, 252, 240);"></path><path d="M222,170h6v10h-6Z" style="fill: rgb(245, 251, 238);"></path><path d="M163,70h7v10h-7Z" style="fill: rgb(246, 252, 239);"></path><path d="M209,140h6v10h-6Z" style="fill: rgb(240, 249, 233);"></path><path d="M163,160h7v10h-7Z" style="fill: rgb(242, 250, 236);"></path><path d="M143,190h7v10h-7Z" style="fill: rgb(247, 252, 240);"></path><path d="M183,40h6v10h-6Z" style="fill: rgb(246, 252, 239);"></path><path d="M196,180h6v10h-6Z" style="fill: rgb(246, 252, 239);"></path><path d="M287,30h6v10h-6Z" style="fill: rgb(247, 252, 240);"></path><path d="M52,180h7v10h-7Z" style="fill: rgb(247, 252, 240);"></path><path d="M0,120h0v10h0Z" style="fill: rgb(246, 252, 239);"></path><path d="M163,180h7v10h-7Z" style="fill: rgb(240, 249, 233);"></path><path d="M150,20h7v10h-7Z" style="fill: rgb(247, 252, 240);"></path><path d="M72,180h6v10h-6Z" style="fill: rgb(247, 252, 240);"></path><path d="M267,40h7v10h-7Z" style="fill: rgb(246, 252, 239);"></path><path d="M65,180h7v10h-7Z" style="fill: rgb(246, 252, 239);"></path><path d="M261,110h6v10h-6Z" style="fill: rgb(247, 252, 240);"></path><path d="M0,140h0v10h0Z" style="fill: rgb(241, 250, 234);"></path><path d="M222,120h6v10h-6Z" style="fill: rgb(240, 249, 233);"></path><path d="M117,60h7v10h-7Z" style="fill: rgb(247, 252, 240);"></path><path d="M117,10h7v10h-7Z" style="fill: rgb(247, 252, 240);"></path><path d="M130,120h7v10h-7Z" style="fill: rgb(247, 252, 240);"></path><path d="M235,120h6v10h-6Z" style="fill: rgb(247, 252, 240);"></path><path d="M248,50h6v10h-6Z" style="fill: rgb(247, 252, 240);"></path><path d="M0,80h0v10h0Z" style="fill: rgb(246, 252, 239);"></path><path d="M228,110h7v10h-7Z" style="fill: rgb(245, 251, 238);"></path><path d="M117,180h7v10h-7Z" style="fill: rgb(242, 250, 236);"></path><path d="M163,90h7v10h-7Z" style="fill: rgb(247, 252, 240);"></path><path d="M228,120h7v10h-7Z" style="fill: rgb(242, 250, 236);"></path><path d="M235,110h6v10h-6Z" style="fill: rgb(247, 252, 240);"></path><path d="M111,190h6v10h-6Z" style="fill: rgb(245, 251, 238);"></path><path d="M235,140h6v10h-6Z" style="fill: rgb(247, 252, 240);"></path><path d="M248,120h6v10h-6Z" style="fill: rgb(246, 252, 239);"></path><path d="M235,150h6v10h-6Z" style="fill: rgb(247, 252, 240);"></path><path d="M143,80h7v10h-7Z" style="fill: rgb(247, 252, 240);"></path><path d="M0,100h0v10h0Z" style="fill: rgb(246, 252, 239);"></path><path d="M124,160h6v10h-6Z" style="fill: rgb(246, 252, 239);"></path><path d="M72,170h6v10h-6Z" style="fill: rgb(247, 252, 240);"></path><path d="M98,130h6v10h-6Z" style="fill: rgb(247, 252, 240);"></path><path d="M124,190h6v10h-6Z" style="fill: rgb(247, 252, 240);"></path><path d="M98,140h6v10h-6Z" style="fill: rgb(247, 252, 240);"></path><path d="M235,130h6v10h-6Z" style="fill: rgb(246, 252, 239);"></path><path d="M0,160h0v10h0Z" style="fill: rgb(247, 252, 240);"></path><path d="M157,150h6v10h-6Z" style="fill: rgb(243, 251, 237);"></path><path d="M261,90h6v10h-6Z" style="fill: rgb(247, 252, 240);"></path><path d="M202,180h7v10h-7Z" style="fill: rgb(247, 252, 240);"></path><path d="M157,60h6v10h-6Z" style="fill: rgb(247, 252, 240);"></path><path d="M72,150h6v10h-6Z" style="fill: rgb(247, 252, 240);"></path><path d="M222,140h6v10h-6Z" style="fill: rgb(247, 252, 240);"></path><path d="M215,130h7v10h-7Z" style="fill: rgb(246, 252, 239);"></path><path d="M176,20h7v10h-7Z" style="fill: rgb(247, 252, 240);"></path><path d="M0,180h0v10h0Z" style="fill: rgb(246, 252, 239);"></path><path d="M85,190h6v10h-6Z" style="fill: rgb(246, 252, 239);"></path><path d="M130,110h7v10h-7Z" style="fill: rgb(247, 252, 240);"></path><path d="M72,120h6v10h-6Z" style="fill: rgb(247, 252, 240);"></path><path d="M241,110h7v10h-7Z" style="fill: rgb(247, 252, 240);"></path><path d="M241,130h7v10h-7Z" style="fill: rgb(247, 252, 240);"></path><path d="M248,100h6v10h-6Z" style="fill: rgb(247, 252, 240);"></path><path d="M117,150h7v10h-7Z" style="fill: rgb(247, 252, 240);"></path><path d="M91,30h7v10h-7Z" style="fill: rgb(247, 252, 240);"></path><path d="M85,160h6v10h-6Z" style="fill: rgb(246, 252, 239);"></path><path d="M130,140h7v10h-7Z" style="fill: rgb(247, 252, 240);"></path><path d="M261,60h6v10h-6Z" style="fill: rgb(247, 252, 240);"></path><path d="M0,110h0v10h0Z" style="fill: rgb(247, 252, 240);"></path><path d="M254,90h7v10h-7Z" style="fill: rgb(247, 252, 240);"></path><path d="M189,170h7v10h-7Z" style="fill: rgb(247, 252, 240);"></path><path d="M183,10h6v10h-6Z" style="fill: rgb(247, 252, 240);"></path><path d="M117,190h7v10h-7Z" style="fill: rgb(247, 252, 240);"></path><path d="M254,50h7v10h-7Z" style="fill: rgb(247, 252, 240);"></path><path d="M91,180h7v10h-7Z" style="fill: rgb(247, 252, 240);"></path><path d="M111,180h6v10h-6Z" style="fill: rgb(246, 252, 239);"></path><path d="M235,80h6v10h-6Z" style="fill: rgb(247, 252, 240);"></path><path d="M215,140h7v10h-7Z" style="fill: rgb(247, 252, 240);"></path><path d="M280,30h7v10h-7Z" style="fill: rgb(247, 252, 240);"></path><path d="M163,60h7v10h-7Z" style="fill: rgb(247, 252, 240);"></path><path d="M209,160h6v10h-6Z" style="fill: rgb(247, 252, 240);"></path><path d="M143,10h7v10h-7Z" style="fill: rgb(247, 252, 240);"></path><path d="M137,150h6v10h-6Z" style="fill: rgb(247, 252, 240);"></path><path d="M189,20h7v10h-7Z" style="fill: rgb(247, 252, 240);"></path><path d="M254,170h7v10h-7Z" style="fill: rgb(247, 252, 240);"></path></g><g class="mark-group role-legend"><g transform="translate(318,0)"><path class="background" d="M0,0h103v49h-103Z" style="pointer-events: none; fill: none;"></path><g><g class="mark-group role-legend-entry"><g transform="translate(0,16)"><path class="background" d="M0,0h0v0h0Z" style="pointer-events: none; fill: none;"></path><g><g class="mark-rect role-legend-gradient" style="pointer-events: none;"><path d="M0,0h100v20h-100Z" style="fill: url(#gradient_0); stroke: #ddd; stroke-width: 0; opacity: 1;"></path></g><g class="mark-text role-legend-label" style="pointer-events: none;"><text text-anchor="start" transform="translate(0,31)" style="font: 10px sans-serif; fill: #000; opacity: 1;">1</text><text text-anchor="end" transform="translate(100,31)" style="font: 10px sans-serif; fill: #000; opacity: 1;">152</text></g></g></g></g><g class="mark-text role-legend-title" style="pointer-events: none;"><text text-anchor="start" transform="translate(0,10)" style="font: bold 11px sans-serif; fill: #000; opacity: 1;">Number of Records</text></g></g></g></g><g class="mark-group role-axis"><g transform="translate(0.5,200.5)"><path class="background" d="M0,0h0v0h0Z" style="pointer-events: none; fill: none;"></path><g><g class="mark-rule role-axis-tick" style="pointer-events: none;"><line transform="translate(0,0)" x2="0" y2="5" style="fill: none; stroke: #888; stroke-width: 1; opacity: 1;"></line><line transform="translate(33,0)" x2="0" y2="5" style="fill: none; stroke: #888; stroke-width: 1; opacity: 1;"></line><line transform="translate(65,0)" x2="0" y2="5" style="fill: none; stroke: #888; stroke-width: 1; opacity: 1;"></line><line transform="translate(98,0)" x2="0" y2="5" style="fill: none; stroke: #888; stroke-width: 1; opacity: 1;"></line><line transform="translate(130,0)" x2="0" y2="5" style="fill: none; stroke: #888; stroke-width: 1; opacity: 1;"></line><line transform="translate(163,0)" x2="0" y2="5" style="fill: none; stroke: #888; stroke-width: 1; opacity: 1;"></line><line transform="translate(196,0)" x2="0" y2="5" style="fill: none; stroke: #888; stroke-width: 1; opacity: 1;"></line><line transform="translate(228,0)" x2="0" y2="5" style="fill: none; stroke: #888; stroke-width: 1; opacity: 1;"></line><line transform="translate(261,0)" x2="0" y2="5" style="fill: none; stroke: #888; stroke-width: 1; opacity: 1;"></line><line transform="translate(293,0)" x2="0" y2="5" style="fill: none; stroke: #888; stroke-width: 1; opacity: 1;"></line></g><g class="mark-text role-axis-label" style="pointer-events: none;"><text text-anchor="end" transform="translate(0,7) rotate(270) translate(0,3)" style="font: 10px sans-serif; fill: #000; opacity: 1;">0</text><text text-anchor="end" transform="translate(33,7) rotate(270) translate(0,3)" style="font: 10px sans-serif; fill: #000; opacity: 1;">1</text><text text-anchor="end" transform="translate(65,7) rotate(270) translate(0,3)" style="font: 10px sans-serif; fill: #000; opacity: 1;">2</text><text text-anchor="end" transform="translate(98,7) rotate(270) translate(0,3)" style="font: 10px sans-serif; fill: #000; opacity: 1;">3</text><text text-anchor="end" transform="translate(130,7) rotate(270) translate(0,3)" style="font: 10px sans-serif; fill: #000; opacity: 1;">4</text><text text-anchor="end" transform="translate(163,7) rotate(270) translate(0,3)" style="font: 10px sans-serif; fill: #000; opacity: 1;">5</text><text text-anchor="end" transform="translate(196,7) rotate(270) translate(0,3)" style="font: 10px sans-serif; fill: #000; opacity: 1;">6</text><text text-anchor="end" transform="translate(228,7) rotate(270) translate(0,3)" style="font: 10px sans-serif; fill: #000; opacity: 1;">7</text><text text-anchor="end" transform="translate(261,7) rotate(270) translate(0,3)" style="font: 10px sans-serif; fill: #000; opacity: 1;">8</text><text text-anchor="end" transform="translate(293,7) rotate(270) translate(0,3)" style="font: 10px sans-serif; fill: #000; opacity: 1;">9</text></g><g class="mark-rule role-axis-domain" style="pointer-events: none;"><line transform="translate(0,0)" x2="300" y2="0" style="fill: none; stroke: #888; stroke-width: 1; opacity: 1;"></line></g><g class="mark-text role-axis-title" style="pointer-events: none;"><text text-anchor="middle" transform="translate(150,25.5615234375)" style="font: bold 11px sans-serif; fill: #000; opacity: 1;">BIN(IMDB_Rating)</text></g></g></g></g><g class="mark-group role-axis"><g transform="translate(0.5,0.5)"><path class="background" d="M0,0h0v0h0Z" style="pointer-events: none; fill: none;"></path><g><g class="mark-rule role-axis-tick" style="pointer-events: none;"><line transform="translate(0,200)" x2="-5" y2="0" style="fill: none; stroke: #888; stroke-width: 1; opacity: 1;"></line><line transform="translate(0,160)" x2="-5" y2="0" style="fill: none; stroke: #888; stroke-width: 1; opacity: 1;"></line><line transform="translate(0,120)" x2="-5" y2="0" style="fill: none; stroke: #888; stroke-width: 1; opacity: 1;"></line><line transform="translate(0,80)" x2="-5" y2="0" style="fill: none; stroke: #888; stroke-width: 1; opacity: 1;"></line><line transform="translate(0,40)" x2="-5" y2="0" style="fill: none; stroke: #888; stroke-width: 1; opacity: 1;"></line><line transform="translate(0,0)" x2="-5" y2="0" style="fill: none; stroke: #888; stroke-width: 1; opacity: 1;"></line></g><g class="mark-text role-axis-label" style="pointer-events: none;"><text text-anchor="end" transform="translate(-7,203)" style="font: 10px sans-serif; fill: #000; opacity: 1;">0</text><text text-anchor="end" transform="translate(-7,163)" style="font: 10px sans-serif; fill: #000; opacity: 1;">20</text><text text-anchor="end" transform="translate(-7,123)" style="font: 10px sans-serif; fill: #000; opacity: 1;">40</text><text text-anchor="end" transform="translate(-7,83)" style="font: 10px sans-serif; fill: #000; opacity: 1;">60</text><text text-anchor="end" transform="translate(-7,43)" style="font: 10px sans-serif; fill: #000; opacity: 1;">80</text><text text-anchor="end" transform="translate(-7,3)" style="font: 10px sans-serif; fill: #000; opacity: 1;">100</text></g><g class="mark-rule role-axis-domain" style="pointer-events: none;"><line transform="translate(0,200)" x2="0" y2="-200" style="fill: none; stroke: #888; stroke-width: 1; opacity: 1;"></line></g><g class="mark-text role-axis-title" style="pointer-events: none;"><text text-anchor="middle" transform="translate(-32,100) rotate(-90) translate(0,-2)" style="font: bold 11px sans-serif; fill: #000; opacity: 1;">BIN(Rotten_Tomatoes_Rating)</text></g></g></g></g></g></g></g></g></svg>